<?xml version="1.0" standalone="no"?>
<!DOCTYPE svg PUBLIC "-//W3C//DTD SVG 1.1//EN" "http://www.w3.org/Graphics/SVG/1.1/DTD/svg11.dtd" >
<svg xmlns="http://www.w3.org/2000/svg">
<metadata>
Created by FontForge 20120731 at Wed Jul 19 09:25:38 2017
 By admin
</metadata>
<defs>
<font id="wof" horiz-adv-x="1024" >
  <font-face 
    font-family="wof"
    font-weight="500"
    font-stretch="normal"
    units-per-em="1024"
    panose-1="2 0 6 3 0 0 0 0 0 0"
    ascent="896"
    descent="-128"
    x-height="792"
    bbox="-0.0952381 -128 1078 896"
    underline-thickness="0"
    underline-position="0"
    unicode-range="U+0078-E827"
  />
<missing-glyph 
 />
    <glyph glyph-name=".notdef" 
 />
    <glyph glyph-name=".notdef" 
 />
    <glyph glyph-name=".null" horiz-adv-x="0" 
 />
    <glyph glyph-name="nonmarkingreturn" horiz-adv-x="341" 
 />
    <glyph glyph-name="x" unicode="x" horiz-adv-x="1001" 
d="M281 543q-27 -1 -53 -1h-83q-18 0 -36.5 -6t-32.5 -18.5t-23 -32t-9 -45.5v-76h912v41q0 16 -0.5 30t-0.5 18q0 13 -5 29t-17 29.5t-31.5 22.5t-49.5 9h-133v-97h-438v97zM955 310v-52q0 -23 0.5 -52t0.5 -58t-10.5 -47.5t-26 -30t-33 -16t-31.5 -4.5q-14 -1 -29.5 -0.5
t-29.5 0.5h-32l-45 128h-439l-44 -128h-29h-34q-20 0 -45 1q-25 0 -41 9.5t-25.5 23t-13.5 29.5t-4 30v167h911zM163 247q-12 0 -21 -8.5t-9 -21.5t9 -21.5t21 -8.5q13 0 22 8.5t9 21.5t-9 21.5t-22 8.5zM316 123q-8 -26 -14 -48q-5 -19 -10.5 -37t-7.5 -25t-3 -15t1 -14.5
t9.5 -10.5t21.5 -4h37h67h81h80h64h36q23 0 34 12t2 38q-5 13 -9.5 30.5t-9.5 34.5q-5 19 -11 39h-368zM336 498v228q0 11 2.5 23t10 21.5t20.5 15.5t34 6h188q31 0 51.5 -14.5t20.5 -52.5v-227h-327z" />
    <glyph glyph-name="jiankang" unicode="&#xe613;" 
d="M601 756l-89 -96l-89 96l-342 -311l431 -433l431 433zM265 395l-9 6l166 197l125 -42l-131 -117l96 -168l137 130l-154 30l117 73l156 -89l-256 -264z" />
    <glyph glyph-name="assistant" unicode="&#xe60a;" 
d="M712 529l60 103q35 -3 53 27q11 20 5.5 41.5t-25 32.5t-41 5.5t-33.5 -25.5q-17 -30 4 -59l-59 -102q-48 25 -101 35q-26 9 -54 27.5t-43 33.5l-16 14q-3 -7 -10.5 -18.5t-31.5 -38t-50 -43.5q-11 -5 -22 -11l-60 103q21 29 3 59q-11 20 -32.5 25.5t-41 -5.5t-25.5 -32.5
t6 -41.5q17 -30 53 -26l60 -105q-58 -41 -91 -102.5t-33 -130.5q0 -109 75.5 -191.5t189.5 -101.5q27 22 61 22t61 -22q113 20 188 102.5t75 190.5q0 70 -33.5 131t-91.5 103zM512 172q-50 0 -86 36t-36 86.5t36 86t86 35.5t86 -35.5t36 -86t-36 -86.5t-86 -36zM578 310
q2 -8 2 -16q0 -28 -20 -48t-48 -20t-48 20t-20 48t20 48t48 20h3q-7 -11 -7 -23q0 -17 12 -29t29 -12t29 12zM952 397l-34 9q-11 108 -74 196l-30 -34q63 -92 63 -205v-51q0 -138 -90.5 -241t-224.5 -121q-15 30 -49 30q-22 0 -38 -15.5t-16 -38t16 -38.5t38 -16
q17 0 31 9.5t20 24.5q115 15 205 88t128 181l55 13q19 5 33 22.5t14 37.5v89q0 20 -14 37.5t-33 22.5zM106 406l-34 -8q-19 -5 -33 -23t-14 -38v-88q0 -21 14 -38.5t33 -21.5l54 -13q8 -2 14.5 2.5t6.5 13.5v171q0 112 63 205l-30 34q-63 -88 -74 -196zM596 637
q-13 2 -15 15l-31 151l-34 -103q-4 -11 -15.5 -12.5t-18.5 7.5l-38 54l-30 -52q-6 -10 -17 -10h-73v38h62l40 69q5 8 15 9t16 -8l34 -47l45 134q4 14 18.5 13t17.5 -15l36 -174l26 42q6 9 16 9h50v-38h-39l-46 -73q-5 -9 -16 -9h-3z" />
    <glyph glyph-name="yongyaotixing" unicode="&#xe621;" 
d="M390 754q-25 35 -63 55.5t-83 20.5q-74 0 -126 -51.5t-52 -124.5q0 -70 50 -123q43 83 114 141t160 82zM908 531q50 52 50 123q0 73 -52 124.5t-126 51.5q-45 0 -83 -20.5t-63 -55.5q89 -24 161 -83t113 -140zM513 719q-108 0 -199 -52t-143.5 -142t-52.5 -196
q0 -128 75 -230l-61 -61q-18 -17 -18 -41.5t18 -41.5v0q17 -16 41.5 -16.5t41.5 16.5l61 60q105 -77 237 -77q128 0 233 75l58 -58q17 -17 42 -17t42 17t17 41.5t-17 41.5l-58 57q78 104 78 234q0 106 -53 196t-144 142t-198 52zM512 15q-133 0 -226 93t-93 225.5t93 225
t226 92.5t226 -92.5t93 -225t-93 -225.5t-226 -93zM636 531h-73v-23h-75v21h-72v-21h-85v-50h85v-21h72v21h75v-21h73v21h86v50h-86v23zM336 208v-45q91 -3 169 17v39q-78 -13 -169 -11zM711 407h-114q2 3 5 13q2 8 4 12h-70q-9 -53 -43 -83v-41q17 7 31 13q17 -43 24 -85
h64q-6 46 -34 94h-39q21 11 36 31h66v-138q2 -24 -23 -24h-33v-42h62q66 -2 64 57v193zM340 277v-50q104 -1 160 10v45q-41 -7 -85 -7q63 40 93 117h-64q-10 -23 -24 -43h-31q34 32 60 85h-68q-17 -50 -51 -85v-42h52q-17 -15 -42 -30z" />
    <glyph glyph-name="tixing" unicode="&#xe7eb;" 
d="M740 412h-184v183q0 18 -13 30.5t-30.5 12.5t-30 -12.5t-12.5 -30.5v-227q0 -18 12.5 -30.5t30.5 -12.5q5 0 10 1h217q18 0 30.5 13t12.5 30.5t-12.5 30t-30.5 12.5v0zM876 22l-75 63q56 57 87 131t31 156q0 111 -54.5 205t-148.5 148.5t-205 54.5t-205 -54.5
t-148.5 -148.5t-54.5 -205q0 -82 31.5 -156t86.5 -131l-61 -73q-10 -12 -8.5 -28t13.5 -26.5t28 -9t26 13.5l62 74q104 -71 230 -71t230 70l85 -72q12 -10 28 -9t26.5 13.5t9 28t-13.5 26.5v0zM304 115q-2 2 -4.5 4t-4.5 3q-54 47 -84 112t-30 138q0 90 44 166t120 120.5
t166 44.5t166 -44.5t120.5 -120.5t44.5 -166t-44.5 -166t-120.5 -120t-166 -44q-117 0 -207 73v0zM331 780q-5 4 -14 9.5t-36 15.5t-53 11t-61 -13.5t-64 -48.5q-3 -5 -8.5 -14t-15.5 -35t-13 -49.5t5 -51.5t32 -47l9 19t28.5 48.5t45 60t64.5 57.5t81 38v0zM920 549
q4 5 9.5 13.5t16.5 35.5t13 53t-11 61t-46 65q-5 4 -14 9.5t-34.5 16.5t-48.5 15t-51.5 -3t-48.5 -31q7 -3 19.5 -9.5t45.5 -29.5t60 -48t53.5 -65.5t36.5 -82.5v0zM920 549z" />
    <glyph glyph-name="tijian" unicode="&#xe6ea;" 
d="M860 94v70q0 58 -41.5 99.5t-99.5 41.5t-99.5 -41.5t-41.5 -99.5v-150q0 -30 -21 -51.5t-51.5 -21.5t-51.5 21.5t-21 51.5v205h7q7 0 12 5t5 12v15q84 9 136 55q84 75 109 271q24 190 -32 253q-22 25 -52 34t-72 9q-16 22 -44 22q-23 0 -39 -16.5t-16 -39.5t16 -39
t39 -16q27 0 44 21q57 -1 74 -20q35 -40 15 -199q-22 -171 -87 -229q-34 -30 -91 -37v18q0 7 -5 12t-12 5h-82q-7 0 -12 -5t-5 -12v-17q-50 8 -81 36q-66 58 -87 229q-21 159 15 199q17 19 73 20q17 -21 44 -21q23 0 39.5 16t16.5 39t-16.5 39.5t-39.5 16.5q-27 0 -44 -22
q-42 0 -72 -9t-52 -34q-56 -63 -32 -253q25 -196 109 -271q50 -44 127 -54v-16q0 -7 5 -12t12 -5h7v-205q0 -58 41 -99.5t99.5 -41.5t99.5 41.5t41 99.5v150q0 30 21.5 51.5t51.5 21.5t51.5 -21.5t21.5 -51.5v-70q-30 -10 -48.5 -36t-18.5 -59q0 -41 29.5 -70.5t71 -29.5
t71 29.5t29.5 70.5q0 33 -18.5 59t-47.5 36v0v0zM826 -33q-14 0 -23.5 9.5t-9.5 23t9.5 23t23 9.5t23.5 -9.5t10 -23t-10 -23t-23 -9.5v0v0zM826 -33z" />
    <glyph glyph-name="yyz" unicode="&#xe622;" 
d="M660 55q24 31 -2 63q83 2 131 10q36 7 44 10q65 85 65 188q0 108 -71 195.5t-184 124.5q11 33 3 79q-16 -23 -36 -42q7 37 -4 82l-6 19q-12 -33 -29.5 -57.5t-35 -36.5t-28.5 -17t-21 -7q-101 -5 -185.5 -51.5t-133.5 -123t-49 -165.5q0 -93 52 -171.5t142 -124.5
t196 -46q141 0 250 80q-35 -5 -98 -9zM124 466q-9 5 -18 5q-31 0 -52.5 -43.5t-21.5 -104.5t21.5 -104t52.5 -43q10 0 19 5q-36 68 -36 143t35 142zM183 343q3 24 11.5 46.5t30.5 47.5t53 35q57 18 103.5 -5t103.5 -84q8 -9 22 -9.5t24 9.5q28 35 67.5 64.5t78.5 35.5
q68 9 110 -27.5t49 -117.5q4 -50 -19 -86t-57.5 -51t-72.5 -12q-61 4 -137 61q-18 13 -40.5 12.5t-39.5 -15.5q-93 -84 -187 -61q-33 8 -55.5 27.5t-31.5 43.5t-12 45t-1 41zM342 253v0q-17 0 -28.5 11.5t-11.5 28.5v57q0 16 11.5 28t28.5 12t28.5 -12t11.5 -28v-57
q0 -17 -11.5 -28.5t-28.5 -11.5zM682 253v0q-17 0 -28.5 11.5t-11.5 28.5v57q0 16 11.5 28t28 12t28.5 -12t12 -28v-57q0 -17 -12 -28.5t-28 -11.5zM391 394q2 -3 -1 -5.5t-6 -0.5q-27 26 -52 23q-22 -3 -23 12q-2 13 14 16q12 2 29 -7q24 -12 39 -38zM627 394
q-2 -3 1.5 -5.5t5.5 -0.5q27 26 53 23q21 -3 23 12q2 13 -14 16q-12 2 -29 -7q-24 -12 -40 -38zM612 32h-100q-22 0 -37.5 15.5t-15.5 38t15.5 38t37.5 15.5h100q23 0 41 -16t18 -37.5t-18 -37.5t-41 -16zM634 75q-70 0 -133 4l1 21q11 -1 47.5 -2t103.5 -0.5t110 4.5
q35 3 66 20.5t49 35.5t33 43t18.5 33t6.5 15l19 -7v-1q-3 -10 -8 -21t-21.5 -37t-35.5 -45.5t-52.5 -36.5t-72.5 -20q-69 -6 -131 -6zM616 53h-97q-14 0 -23.5 9.5t-9.5 23t9.5 23t23.5 9.5h97q13 0 23 -9.5t10 -23t-10 -23t-23 -9.5zM900 466q9 5 18 5q31 0 52.5 -43.5
t21.5 -104.5t-21.5 -104t-52.5 -43q-10 0 -19 5q36 68 36 143t-35 142v0z" />
    <glyph glyph-name="jiatingyisheng" unicode="&#xe827;" 
d="M839 -57h-126.5h-164.5v47q17 9 40 74t44.5 124t35.5 58q104 -21 163.5 -81t59.5 -162q-1 -28 -14.5 -44t-37.5 -16v0zM726 416q-22 -73 -74.5 -118.5t-118 -45.5t-118 46t-74.5 119q-28 13 -35 55q-2 13 -1 23t4.5 16.5t7.5 10t6 5.5l3 1q3 1 7 -4q6 18 21 33
q56 55 183 55q63 1 101.5 -9t74.5 -45q15 -14 22 -36q4 7 8 7l7.5 -5t10.5 -17.5t2 -34.5q-7 -43 -37 -56v0zM319 582v193q11 6 29.5 15.5t73 26t104.5 16.5q48 0 102.5 -14.5t85.5 -29.5l30 -14v-194q-2 3 -7.5 8t-24.5 17t-41 21.5t-59.5 17t-79.5 7.5t-79.5 -7t-61 -17.5
t-40.5 -21t-24 -17.5l-8 -7v0zM591 728v25h-47v47h-25v-47h-46v-25h46v-47h25v47h47v0zM527 -10v-47h-164h-127q-24 0 -37.5 16t-14.5 44q0 102 59.5 162t163.5 81q14 1 35.5 -58t44.5 -124t40 -74v0zM527 -10z" />
    <glyph glyph-name="yunfu" unicode="&#xe725;" 
d="M920 127q-6 25 -26 47.5t-48 40t-50 28t-44 19.5q29 28 40 48q6 11 2 23q-7 23 -51 51q-29 18 -67 36q-26 12 -53 45t-28 54q-2 20 12 42q38 -30 51 -33q20 -6 35 8q68 60 78 150q7 68 -15 111q-12 22 -36 44q-7 9 -18 19t-41.5 23t-66.5 12q-64 -2 -113 -48
q-47 -44 -60 -104q-9 -46 -23.5 -61.5t-65.5 -42.5l-1 -1q-85 -45 -135 -85q-89 -71 -101 -145q-19 -107 44 -190q8 -10 15.5 -18.5t12 -13.5t12 -11.5t9 -8t9.5 -7.5l8 -6q32 -24 104 -57v3.5v9t0.5 11.5t0.5 11t0.5 8t1.5 2q49 -50 125 -121q-30 -59 -35 -86q-7 -36 6 -52
q7 -9 18 -9h352l2 1q110 43 140 105q25 53 0 148zM450 47q-156 147 -167 169q-12 22 -12 37t13 36q23 31 92 109q5 -29 29 -70q-16 -14 -29 -29q-36 -38 -36 -58q0 -9 7 -20.5t13.5 -19t20.5 -21.5q18 -17 23 -24q18 -23 61 -77q-6 -14 -15 -32zM484 127q-4 -11 -7 -17
q-36 45 -50 63q-6 9 -25 28q-33 32 -33 40q2 15 48 59q47 -59 66 -100q12 -26 12 -36.5t-11 -36.5zM473 502q5 5 11 10q30 29 38 40q21 27 31 45q1 1 4.5 7.5t5 9.5t5 11t5.5 14.5t5 17.5t5.5 23t5 28.5t4.5 35.5q3 31 23 40q-5 -18 3 -28q7 -9 16 -9v0q11 0 19 11
q11 14 30.5 20.5t35.5 3.5q9 -2 14 -7q14 -37 8 -86q-8 -79 -68 -132h-1q-3 -3 -7 -2q-11 4 -54 38l-10 8l-9 -10q-30 -33 -27 -74q2 -28 29.5 -63.5t57.5 -53.5l-33 5.5t-42 8t-25 9.5q-48 25 -80 79z" />
    <glyph glyph-name="xset" unicode="&#xe6af;" 
d="M313 754q-1 -1 -3 -3.5t-6.5 -10.5t-6 -15.5t0.5 -18.5t9.5 -20t17 -14t17 -5.5t14 0.5t10.5 3l4 1q3 8 9.5 20.5t31.5 44t55.5 55.5t83 43.5t112.5 19.5q170 -13 223 -171q18 -55 18 -122v-13t-3 -34.5t-9.5 -49t-21.5 -53.5t-36 -53q-13 -12 -24.5 -32t-11.5 -37
q0 -11 4.5 -22t8.5 -16l5 -5q1 -2 3.5 -5t6.5 -16.5t3.5 -31t-9.5 -51t-27 -73.5q-7 -13 -17.5 -27.5t-35 -38t-54 -41.5t-76.5 -32t-102 -16q-19 0 -40.5 5t-50 18.5t-56.5 44.5t-48 76l-39 -34q-1 -1 -3.5 -2.5t-9.5 -4.5t-15 -4.5t-20.5 0t-25.5 7.5l-33 14v0
q-22 -4 -26 -4q-3 0 -5 3t-2 6v3q-1 7 9 14q-8 1 -12.5 5.5t-4.5 8.5v3q-1 12 10 16q-7 2 -10.5 6t-3.5 7v3q1 8 17 14q-7 5 -9 11t-1 9l1 4q4 7 22 9q-9 7 -9.5 16t3.5 13l4 5l6 3t14.5 1.5t20.5 -9.5q6 -1 9 2t2 6v3q0 1 -1 2t-3 4t-2 5.5t2.5 6t8.5 6.5q-2 10 -1.5 15.5
t1.5 6.5l1 2q7 6 18 8q-3 14 1.5 22t10.5 10l6 1q0 -1 3 0t8.5 -1.5t10.5 -6.5t9 -14t5 -25q28 29 66 30q47 1 116 -98q3 26 15.5 41t24.5 17l11 2q30 2 48 -23q5 3 11.5 5.5t11.5 3.5l4 1q9 2 23 -15q2 -1 3.5 -0.5t3.5 1.5l1 1q29 33 93 58l-14 26q-3 -2 -8.5 -4.5
t-23.5 -8.5t-37 -9.5t-47.5 -2t-56.5 9.5q-15 5 -30.5 19t-23.5 25l-8 12q-3 10 -15 10q-11 -1 -17.5 3.5t-7.5 8.5l-1 5q-3 21 15 47q7 12 5.5 20t-5.5 13l-5 4q-7 6 -17.5 15.5t-30 39t-23.5 57.5q-2 12 -2.5 28t0.5 26l1 10q-16 -26 -23 -71q-1 36 7 65t16 40l9 11
q-2 -1 -6 -2.5t-15 -3t-21 0.5t-21.5 10.5t-19.5 24.5q-8 21 -1.5 36t17.5 23z" />
    <glyph glyph-name="huodong" unicode="&#xe670;" 
d="M975 605l-72 -42q-15 -9 -32 -4.5t-25.5 20t-4 32.5t19.5 26l72 41q-53 76 -128 128l-42 -72q-8 -15 -25 -19.5t-32.5 4t-20 25.5t4.5 33l42 72q-83 39 -175 47v-84q0 -17 -12.5 -29.5t-30 -12.5t-30 12.5t-12.5 29.5v84q-91 -8 -174 -47l41 -72q9 -16 4.5 -33
t-19.5 -25.5t-32 -4t-26 19.5l-42 72q-75 -52 -127 -128l72 -41q15 -9 19.5 -26t-4.5 -32.5t-26 -20t-32 4.5l-72 42q-48 -103 -48 -218q0 -104 40 -198.5t108.5 -162.5t162.5 -108.5t197.5 -40.5t198 40.5t162.5 108.5t108.5 162.5t40.5 198.5q0 114 -49 218v0zM809 217
q-35 -60 -89.5 -101t-116.5 -57.5t-130 -8.5t-128 42.5t-101 89.5t-57.5 117t-8.5 130t42.5 128t89.5 101t117 58t130 8.5t127.5 -43t100.5 -89t57.5 -117t8.5 -130.5t-42 -128v0zM693 606l-120 -204q-9 -15 -26 -20t-32 4t-20 26t4 32l121 205q-50 21 -105 21
q-117 0 -200 -83t-83 -200.5t83 -200.5t200 -83t199.5 83t82.5 200q0 65 -27.5 122.5t-76.5 97.5v0zM693 606z" />
    <glyph glyph-name="quanshengzhengzhuang" unicode="&#xe645;" 
d="M562 764q-21 3 -43 3q-103 0 -191 -52t-141 -141.5t-57 -196.5l17 25q-36 -15 -57.5 -48t-21.5 -73q0 -54 36.5 -92t88.5 -38h11l-3 28l-24 -13q52 -98 143.5 -154.5t198.5 -56.5q106 0 196.5 55.5t142.5 150.5l-23 -14q51 0 87 38t36 92q0 35 -17 65.5t-46 47.5l13 -24
q-1 129 -74 233q-6 10 -17.5 11.5t-20.5 -5t-10.5 -18.5t4.5 -21q63 -90 64 -201v-16l14 -8q36 -21 36 -64q0 -30 -20.5 -51.5t-49.5 -22.5h-16l-7 -14q-45 -82 -123 -129.5t-169 -47.5q-92 0 -171 48.5t-123 132.5l-8 16l-18 -1q-3 -1 -6 -1q-29 0 -49.5 21.5t-20.5 52.5
q0 23 12 41.5t32 26.5l17 7v18q6 141 103 238.5t232 97.5q19 0 37 -2q12 -2 20.5 5.5t10 19.5t-5.5 21t-19 10v0zM700 252q-3 -6 -6 -11q-27 -51 -75.5 -80.5t-105.5 -29.5q-59 0 -109.5 33t-76.5 88q-5 10 -16 14t-21 -1.5t-13.5 -16.5t1.5 -22q33 -69 96.5 -110t138.5 -41
q72 0 133 37t96 101q3 7 7 13q5 11 1 22t-14 16.5t-20.5 1.5t-15.5 -14v0zM643 774q30 -1 51 -23q22 -22 22 -54t-21.5 -55t-52.5 -23t-53 22q-8 9 -19 8.5t-19 -8.5t-8 -20t8 -20q38 -39 91.5 -39t91 40t37 95.5t-38.5 94.5q-37 38 -88 39q-11 0 -19.5 -8.5t-8.5 -20t8 -20
t19 -8.5v0zM716 417q17 -17 17 -41q0 -23 -16 -40t-39 -17t-39 17t-16 40.5t16 40t39 16.5q22 0 38 -16zM391 417q17 -17 17 -41q0 -23 -16 -40t-38.5 -17t-38.5 17t-16 40.5t16 40t38 16.5t38 -16z" />
    <glyph glyph-name="zhengce" unicode="&#xe60c;" 
d="M889 803l-374 -107l-375 107q-26 8 -45 -6.5t-19 -41.5v-542q0 -27 18 -54.5t44 -38.5l349 -150q15 -6 28 -5q13 -1 28 5l349 150q26 11 44 38.5t18 54.5v542q0 27 -19 41.5t-46 6.5zM829 384l-202 -67q-13 -5 -25.5 1t-17 19.5t1.5 26t19 17.5l202 68q13 4 26 -2
t17 -19.5t-2 -26t-19 -17.5zM829 249l-202 -68q-13 -4 -25.5 2t-17 19.5t1.5 26t19 16.5l202 68q13 5 26 -1.5t17 -19.5t-2 -25.5t-19 -17.5zM829 520l-202 -68q-13 -5 -25.5 1.5t-17 19.5t1.5 25.5t19 17.5l202 68q13 4 26 -2t17 -19.5t-2 -26t-19 -16.5zM392 307l-80 42
l-79 -42l15 89l-64 62l88 13l40 81l40 -81l89 -13l-65 -62z" />
    <glyph glyph-name="notice" unicode="&#xe749;" 
d="M734 455q-30 65 -51 105.5t-46.5 81.5t-48.5 62.5t-53 40t-64.5 24.5t-79.5 5q-21 0 -35 6.5t-19 14t-16 11t-27 -3.5q-16 -6 -22 -15t-5.5 -18t-5.5 -23.5t-23 -27.5q-34 -29 -57 -56.5t-34.5 -61t-15 -65.5t2.5 -80t15.5 -92.5t27.5 -114.5q7 -29 3.5 -53t-12.5 -38
t-17.5 -33t-11 -37.5t8.5 -51.5q14 -37 76 -57.5t159 -14.5t196 43t177 95.5t113 115t21 93.5q-10 29 -25.5 45t-32 22.5t-33.5 13t-34.5 22t-30.5 42.5zM556.5 69.5q-52.5 -19.5 -106 -29t-94 -9.5t-73.5 4.5t-51 11t-20 12.5q-3 10 3.5 26.5t27 39.5t51 47t80 50.5t110 49
t115.5 35t93.5 14.5t68.5 -2t45.5 -12.5t19.5 -19.5q3 -7 -6.5 -24t-32 -42t-53.5 -51t-78 -53.5t-99.5 -47zM497 236q-131 -48 -208 -114q23 -21 62.5 -25t82.5 12q55 20 84.5 60.5t15.5 77.5v2q-20 -6 -37 -13z" />
    <glyph glyph-name="shouye" unicode="&#xe608;" horiz-adv-x="1026" 
d="M1011 382l-470 396q-1 1 -4 3v0.5v0.5q-10 11 -24.5 12.5t-25.5 -7.5l-474 -391q-12 -9 -13 -23.5t8.5 -26t24 -12.5t25.5 8l50 41v-417q0 -39 27.5 -66.5t66.5 -27.5h235v206q0 12 8.5 20.5t21.5 8.5h104q12 0 21 -8.5t9 -20.5v-206h235q38 0 65.5 27.5t27.5 66.5v391
l37 -30q11 -10 25.5 -8.5t23.5 13t8 26t-12 24.5v0v0z" />
    <glyph glyph-name="chanhoutiantijian" unicode="&#xe665;" 
d="M513 812q-95 0 -187.5 -52t-155.5 -136.5t-78 -176.5h-69q16 120 84 218.5t175 155t230 56.5t230 -56.5t175 -155t84 -218.5h-68q-14 92 -77 176.5t-155.5 136.5t-187.5 52zM474 498v-304h-76v114h-151v190h75v-152h76v152h76zM740 232v-38h-190v152h114v114h-114v38h190
v-190h-114v-76h114zM513 -40q77 0 154.5 36t136 93t95.5 133.5t39 153.5h67q-2 -99 -41.5 -189t-105 -155t-156.5 -103t-190 -38t-190 38t-156.5 103t-105 155t-41.5 189h69q1 -77 38.5 -153.5t96 -133.5t135.5 -93t155 -36v0z" />
    <glyph glyph-name="tnb" unicode="&#xe659;" 
d="M827 -128h-630q-86 0 -117 53.5t13 127.5l291 505v338h256v-338l291 -505q44 -74 13 -127.5t-117 -53.5zM382 198q-47 0 -80.5 -33.5t-33.5 -81t33.5 -80.5t80.5 -33t80.5 33t33.5 80.5t-33.5 81t-80.5 33.5zM614 335q-35 0 -59.5 -24.5t-24.5 -59.5t24.5 -59.5t59 -24.5
t59.5 24.5t25 59.5t-24.5 59.5t-59.5 24.5zM512.5 512q-26.5 0 -45.5 -18.5t-19 -45t19 -45.5t45.5 -19t45 19t18.5 45.5t-18.5 45t-45 18.5z" />
    <glyph glyph-name="qitamanxingbing" unicode="&#xe650;" horiz-adv-x="1078" 
d="M662 312h-121v143q0 15 -10 25t-24.5 10t-25 -10t-10.5 -25v-143h-121q-14 0 -24.5 -10.5t-10.5 -25t10.5 -24.5t24.5 -10h121v-143q0 -15 10.5 -25t25 -10t24.5 10t10 25v143h121v0q15 0 25 10t10 24.5t-10 25t-25 10.5v0v0zM1050 53l-58 62l-16 18v1.5v1.5v426
q0 65 -47 111.5t-113 46.5h-142q-2 73 -55 124.5t-126.5 51.5t-126 -51.5t-54.5 -124.5h-152q-66 0 -113 -46.5t-47 -111.5v-524q0 -66 47 -112.5t113 -46.5h656q43 0 81 22q12 -11 32 -19.5t36 -9.5h2.5h1.5h1q17 0 38 8.5t33 19.5l3 3q14 13 24 36t10 42q0 17 -8 38
t-20 34v0zM492.5 826q44.5 0 77 -31t34.5 -75h-222q2 44 34 75t76.5 31zM160 -51q-37 0 -63.5 26t-26.5 63v524q0 36 26.5 62t63.5 26h151v-20q0 -15 10.5 -25t25 -10t24.5 10t10 25v20h224v-20q0 -15 10 -25t24.5 -10t24.5 10t10 25v20h142q38 0 64 -26t26 -62v-354l-24 27
q-13 13 -34.5 23t-39.5 11q-45 1 -76 -28l-3 -3q-14 -13 -24 -36t-10 -42q0 -17 8 -38t20 -34l60 -65l24 -26l39 -42q-14 -6 -30 -6h-656v0zM896 128l-67 -63l-60 65q-10 10 -10 24v2q1 16 17 31l3 2q17 16 32 16q15 -1 25 -12zM997 -46l-3 -2q-17 -16 -32 -16q-15 1 -25 12
l-58 62l68 64l57 -63q10 -10 10 -24v-2q-1 -16 -17 -31v0z" />
    <glyph glyph-name="gxy" unicode="&#xe606;" 
d="M482 195q-17 0 -24 15l-76 184l-25 -105q-2 -8 -8.5 -13.5t-14.5 -6.5l-203 -10h-1q-10 0 -18 7t-8 17v1q0 10 7 17.5t17 8.5l184 10l38 162q2 8 9.5 14t15.5 6q17 0 24 -16l82 -198l62 155q3 7 10 11.5t14 4.5h85q11 0 18.5 -7.5t7.5 -18t-7.5 -18t-18.5 -7.5h-68
l-78 -197q-3 -7 -10 -11.5t-14 -4.5v0zM529 -21v0q-14 0 -24 10l-15 16q-16 13 -53 37l-16 11q-41 26 -94.5 68t-89.5 75q-11 10 -11 26q0 14 10 24t24 10q15 0 25 -11q33 -31 84.5 -70.5t89.5 -64.5l16 -11q37 -24 54 -38q19 14 40 26q25 14 38 23q36 25 54.5 38t56 42
t59 50t50 54.5t44 63.5t26.5 68.5t11 77.5q0 81 -58 138.5t-139 57.5h-1q-38 0 -83.5 -20.5t-71.5 -49.5q-10 -11 -25.5 -11t-25.5 11q-24 29 -67 49.5t-80 20.5h-2q-81 0 -139 -57.5t-58 -139.5q0 -27 8 -63.5t20 -61.5q3 -6 3 -14q0 -14 -10 -24t-25 -10q-9 0 -18 6
t-13 14q-14 30 -24 75t-10 78q1 110 79 188t187 78h1q42 -1 92.5 -21t80.5 -48q33 28 85.5 48t95.5 21h1q110 0 187.5 -78t78.5 -188q0 -46 -12.5 -91t-29.5 -80t-48 -72.5t-55 -62t-64 -56t-62 -47t-61 -41.5q-17 -12 -41 -26q-19 -10 -36 -23l-15 -15q-10 -10 -24 -10v0v0
zM729.5 349q-38.5 0 -66 27.5t-27.5 66t27.5 66t66 27.5t66 -27.5t27.5 -66t-27.5 -66t-66 -27.5zM729 485v0q-17 0 -29.5 -12.5t-12.5 -30t12.5 -30t30 -12.5t30 12.5t12.5 30t-12.5 30t-30.5 12.5z" />
    <glyph glyph-name="changyongyao" unicode="&#xe685;" 
d="M686 781q-91 0 -156 -65l-352 -351q-65 -65 -65 -157t65 -157t157 -65q91 0 156 65l352 352q65 65 65 157q0 91 -65 156t-157 65zM335 -63q-113 0 -192 79t-79 191.5t79 191.5l352 352q79 79 191 79t192 -79q79 -79 79 -191q0 -113 -79 -192l-352 -352q-79 -79 -191 -79
v0zM200 356q-62 -63 -64.5 -145t58.5 -144q62 -62 149 -62q76 0 141 65l163 163l-283 286zM695 744q-73 0 -124 -52l-113 -112q-5 -6 -5 -13t5 -12t12.5 -5t12.5 5l113 113q41 41 99 41t100 -41q5 -6 12 -6t12.5 5.5t5.5 12.5t-5 12q-52 52 -125 52z" />
    <glyph glyph-name="yuyue" unicode="&#xe65d;" 
d="M463 93h-278h-18t-14 1h-4v368h674v174l-1 89h-154v53h-52v-53h-312v53h-52v-53h-153q-2 -40 -2 -89v-595q39 -1 88 -1h280zM227 383h181v-53h-181v53zM227 225h181v-53h-181v53zM746 304h-52v-132h129v53h-77v79zM866.5 347.5q-60.5 61.5 -146.5 61.5t-147 -62t-61 -149
t61 -149t147 -62t146.5 62t60.5 149.5t-60.5 149zM719.5 40q-64.5 0 -110 46.5t-45.5 112t45.5 111.5t110 46t110 -46t45.5 -111.5t-45.5 -112t-110 -46.5z" />
    <glyph glyph-name="manxingjibing" unicode="&#xe627;" 
d="M687 755l33 -58q17 23 44 39q55 33 115 16q60 -16 93 -73q31 -56 15 -117q-16 -62 -71 -94l-3 -2q-24 -14 -52 -18l31 -55q1 -1 4 -6q9 -18 15.5 -44t6.5 -46q0 -24 -6 -48q-8 -29 -31.5 -61.5t-49.5 -49.5q-1 0 -3 -1l-3 -3l-323 -190l-3 -1q-64 -37 -136 -17
q-74 20 -111 86l-48 85q-8 13 -4 28.5t17 23.5q9 5 19 5q8 0 15 -4q19 -8 31 -8q15 0 37 13q24 15 33 51q9 33 -5 58v0q-14 25 -49 33t-56 -5l-2 -1q-21 -12 -28 -25q-6 -11 -9 -32q-1 -15 -13.5 -25t-28.5 -8q-18 3 -27 19l-89 157l-2 3q-36 66 -16 139q19 75 85 113l2 1
l95 56q13 8 28 4t23 -18q9 -14 3 -31q-5 -15 -4 -33q2 -16 9 -29q0 -1 1.5 -3t1.5 -3q15 -25 45 -33q30 -9 56 6q1 0 2 1q2 1 4 1q25 17 34 48q7 31 -8 59l-2 2q-7 13 -21 23l-1 1q-12 9 -29 12q-15 3 -23.5 16.5t-5.5 28.5q3 19 21 27l95 55v1q65 38 138 18q74 -21 111 -87
v0zM693 593l-70 123v1v0v0q-22 39 -67 52q-13 3 -27 3q-29 0 -54 -14v0h-1l-37 -22q16 -15 29 -37l2 -3q31 -55 15 -117q-15 -61 -70 -94h-1q-55 -33 -115 -16q-60 16 -92 71l-1 1q-13 24 -17 48l-36 -21l-1 -1q-40 -23 -51 -68q-11 -44 9 -82l1 -2l52 -91q15 18 42 33l1 1
q48 28 110 13q66 -15 98 -68v-1v-1q29 -51 12 -115q-8 -31 -26.5 -57t-41.5 -39q-29 -17 -50 -21l10 -18q22 -40 66 -52q42 -11 81 10l1 1l325 191h1q38 24 50 68q11 44 -10 82l-1 2l-69 122q-12 17 -3 37q7 14 21.5 19.5t28.5 -1.5q16 -7 33 -7h3q18 0 34 10l2 1
q27 15 36 48q8 32 -8 59q-16 28 -47 37t-59 -8q-15 -8 -27 -26q-10 -17 -11 -35q-2 -20 -19 -30q-13 -8 -28 -4t-23 18z" />
  </font>
</defs>
</svg>
